<?xml version="1.0" encoding="UTF-8"?>
<svg width="493px" height="680px" viewBox="0 0 493 680" version="1.1" xmlns="http://www.w3.org/2000/svg" xmlns:xlink="http://www.w3.org/1999/xlink">
    <!-- Generator: Sketch 46.2 (44496) - http://www.bohemiancoding.com/sketch -->
    <title>cycle-1@2x</title>
    <desc>Created with Sketch.</desc>
    <defs></defs>
    <g id="Page-3" stroke="none" stroke-width="1" fill="none" fill-rule="evenodd">
        <g id="cycle-1">
            <path d="M56.9751326,373.758645 C20.933778,269.086951 76.5696608,155.016487 181.241355,118.975133 C285.913049,82.933778 399.983513,138.569661 436.024867,243.241355 C472.066222,347.913049 416.430339,461.983513 311.758645,498.024867 C207.086951,534.066222 93.0164872,478.430339 56.9751326,373.758645 Z M246.5,131.04832 C149.048277,131.04832 70.0480473,214.74828 70.0480473,317.997414 C70.0480473,421.246548 149.048277,504.946508 246.5,504.946508 C343.951723,504.946508 422.951953,421.246548 422.951953,317.997414 C422.951953,214.74828 343.951723,131.04832 246.5,131.04832 Z" id="Combined-Shape" fill="#000000"></path>
            <path d="M1,632 L490,6" id="Line-2-Copy" stroke="#000000" stroke-width="2" stroke-linecap="square"></path>
            <path d="M1,673 L490,47" id="Line-2-Copy-2" stroke="#000000" stroke-width="2" stroke-linecap="square"></path>
            <path d="M1,720 L490,94" id="Line-2-Copy-3" stroke="#000000" stroke-width="2" stroke-linecap="square"></path>
        </g>
    </g>
</svg>